Coordinates
version=1
nRows=13
nColumns=40
inDegrees=yes

Units are S.I. units (second, meters, Newtons, ...)
If the header above contains a line with 'inDegrees', this indicates whether rotational values are in degrees (yes) or radians (no).

endheader
time	pelvis_tilt	pelvis_list	pelvis_rotation	pelvis_tx	pelvis_ty	pelvis_tz	hip_flexion_r	hip_adduction_r	hip_rotation_r	knee_angle_r	knee_angle_r_beta	ankle_angle_r	subtalar_angle_r	mtp_angle_r	hip_flexion_l	hip_adduction_l	hip_rotation_l	knee_angle_l	knee_angle_l_beta	ankle_angle_l	subtalar_angle_l	mtp_angle_l	lumbar_extension	lumbar_bending	lumbar_rotation	arm_flex_r	arm_add_r	arm_rot_r	elbow_flex_r	pro_sup_r	wrist_flex_r	wrist_dev_r	arm_flex_l	arm_add_l	arm_rot_l	elbow_flex_l	pro_sup_l	wrist_flex_l	wrist_dev_l
      3.76500000	    -20.83523566	      3.21214303	      1.77528843	     -0.37904849	      0.83631742	     -0.78667285	     56.18477723	     -1.17519815	     -9.90236151	     60.31962135	      1.05277600	     13.73311328	      0.00000000	      0.00000000	     38.88212248	    -12.42996603	      2.05208705	     89.24730206	      1.55765927	    -14.05690120	      0.00000000	      0.00000000	     -6.55232477	    -23.23989072	    -17.19594339	     70.35899481	    -15.54828339	     12.39177580	     63.01975942	     87.38888537	      0.00000000	      0.00000000	     89.95033914	      8.71057815	     38.13132754	     38.76080332	     67.32851541	      0.00000000	      0.00000000
      3.77000000	    -20.77168726	      3.22290888	      1.77821268	     -0.37872094	      0.83782106	     -0.78670923	     55.90005628	     -1.17969888	     -9.91528568	     59.93088179	      1.04599121	     13.54493144	      0.00000000	      0.00000000	     38.86582156	    -12.41029989	      2.00298770	     89.23763740	      1.55749059	    -14.05681167	      0.00000000	      0.00000000	     -6.52027957	    -23.26071402	    -17.18689355	     70.37238969	    -15.57090603	     12.41532255	     63.03725619	     87.38943754	      0.00000000	      0.00000000	     89.95051100	      8.71773474	     38.16549623	     38.72824379	     67.38673026	      0.00000000	      0.00000000
      3.77500000	    -20.69680784	      3.22401043	      1.76112525	     -0.37831142	      0.83930029	     -0.78670846	     55.61018383	     -1.16334313	     -9.94513992	     59.56787843	      1.03965561	     13.35861325	      0.00000000	      0.00000000	     38.82862033	    -12.37652282	      2.01705542	     89.25851892	      1.55785504	    -14.07826364	      0.00000000	      0.00000000	     -6.46453242	    -23.27053405	    -17.14045304	     70.34725528	    -15.59346183	     12.43052802	     63.05163178	     87.38933881	      0.00000000	      0.00000000	     89.95039308	      8.72289986	     38.19683090	     38.72209456	     67.44623802	      0.00000000	      0.00000000
      3.78000000	    -20.67149708	      3.19447474	      1.72024711	     -0.37784826	      0.84079043	     -0.78668258	     55.33971497	     -1.09917581	     -9.96828366	     59.12912010	      1.03199783	     13.13857659	      0.00000000	      0.00000000	     38.83128745	    -12.39072465	      1.99859480	     89.23120578	      1.55737834	    -14.05251712	      0.00000000	      0.00000000	     -6.35302432	    -23.25479486	    -17.09365763	     70.31858000	    -15.59955785	     12.46750702	     63.08388160	     87.38873039	      0.00000000	      0.00000000	     89.95027389	      8.70778128	     38.23733327	     38.67449435	     67.51853126	      0.00000000	      0.00000000
      3.78500000	    -20.54479822	      3.23417427	      1.62604019	     -0.37738532	      0.84228263	     -0.78655319	     55.02362178	     -1.05403701	     -9.94580282	     58.82510671	      1.02669179	     12.95349060	      0.00000000	      0.00000000	     38.72669135	    -12.36116472	      1.91074935	     89.28134136	      1.55825337	    -14.05750095	      0.00000000	      0.00000000	     -6.31674612	    -23.31412016	    -16.95045365	     70.31874029	    -15.64252598	     12.46720184	     63.07220697	     87.38552005	      0.00000000	      0.00000000	     89.95034950	      8.73138128	     38.27581897	     38.69629566	     67.57808773	      0.00000000	      0.00000000
      3.79000000	    -20.49293297	      3.24335712	      1.64992216	     -0.37712754	      0.84381292	     -0.78663272	     54.77465057	     -1.06016604	     -9.94206592	     58.46883745	      1.02047372	     12.77493709	      0.00000000	      0.00000000	     38.74333892	    -12.31414885	      1.89774167	     89.27823780	      1.55819920	    -14.06590880	      0.00000000	      0.00000000	     -6.30574878	    -23.31970141	    -16.99293477	     70.35323045	    -15.64904559	     12.48333603	     63.09288727	     87.38591199	      0.00000000	      0.00000000	     89.95060901	      8.71230435	     38.28596540	     38.69278414	     67.62944889	      0.00000000	      0.00000000
      3.79500000	    -20.41832255	      3.25353719	      1.65510160	     -0.37669311	      0.84532605	     -0.78665134	     54.45891309	     -1.07518126	     -9.97859654	     58.05790774	      1.01330165	     12.57456884	      0.00000000	      0.00000000	     38.71760804	    -12.26217830	      1.91269057	     89.29248989	      1.55844795	    -14.07929377	      0.00000000	      0.00000000	     -6.22969743	    -23.35305272	    -16.95322107	     70.29225589	    -15.66198588	     12.50247553	     63.08812119	     87.38601923	      0.00000000	      0.00000000	     89.95030555	      8.72505504	     38.33069626	     38.66745457	     67.68699690	      0.00000000	      0.00000000
      3.80000000	    -20.32991212	      3.27568762	      1.64549974	     -0.37628845	      0.84683902	     -0.78675289	     54.16136494	     -1.09237573	     -9.99453224	     57.70457351	      1.00713480	     12.37573391	      0.00000000	      0.00000000	     38.67735033	    -12.17898653	      1.91664265	     89.30802109	      1.55871902	    -14.07213718	      0.00000000	      0.00000000	     -6.20218277	    -23.35198881	    -16.91622964	     70.31387625	    -15.69128432	     12.52724361	     63.10373049	     87.38589126	      0.00000000	      0.00000000	     89.95032189	      8.71649918	     38.35720275	     38.64021595	     67.74299009	      0.00000000	      0.00000000
      3.80500000	    -20.26865799	      3.29169942	      1.58419553	     -0.37583588	      0.84832999	     -0.78664714	     53.87481450	     -1.04870000	    -10.00300776	     57.31264614	      1.00029438	     12.18727028	      0.00000000	      0.00000000	     38.64665500	    -12.17492959	      1.87092970	     89.33416701	      1.55917535	    -14.07204661	      0.00000000	      0.00000000	     -6.13280404	    -23.41402559	    -16.89222499	     70.28653943	    -15.66068188	     12.53255331	     63.12320257	     87.38373472	      0.00000000	      0.00000000	     89.95040579	      8.70067803	     38.39125636	     38.60473708	     67.79772565	      0.00000000	      0.00000000
      3.81000000	    -20.17766125	      3.28933845	      1.58102911	     -0.37537888	      0.84987636	     -0.78664582	     53.55566164	     -1.02141040	     -9.99363126	     56.91474387	      0.99334967	     11.97113793	      0.00000000	      0.00000000	     38.61133744	    -12.14072444	      1.87360808	     89.32622655	      1.55903676	    -14.05118471	      0.00000000	      0.00000000	     -6.11789756	    -23.42411961	    -16.87544539	     70.27036117	    -15.69344710	     12.53721615	     63.13847056	     87.38196236	      0.00000000	      0.00000000	     89.95026153	      8.70818261	     38.43102242	     38.59896451	     67.86529226	      0.00000000	      0.00000000
      3.81500000	    -20.06629247	      3.32822737	      1.42453625	     -0.37479592	      0.85144648	     -0.78637751	     53.20920298	     -0.91273631	     -9.95492374	     56.50417183	      0.98618384	     11.75726949	      0.00000000	      0.00000000	     38.46690110	    -12.20571226	      1.69879000	     89.32217414	      1.55896603	    -14.02852963	      0.00000000	      0.00000000	     -6.05141944	    -23.50129244	    -16.74127661	     70.23402073	    -15.66429784	     12.55181173	     63.15609831	     87.38226754	      0.00000000	      0.00000000	     89.95021057	      8.67148194	     38.47224256	     38.58708558	     67.93700026	      0.00000000	      0.00000000
      3.82000000	    -19.99610324	      3.33932759	      1.47673645	     -0.37452705	      0.85292269	     -0.78653004	     52.94069616	     -0.94633127	     -9.94311101	     56.16683500	      0.98029620	     11.59130262	      0.00000000	      0.00000000	     38.50966047	    -12.08910708	      1.77539278	     89.36780754	      1.55976249	    -14.04661619	      0.00000000	      0.00000000	     -6.03138240	    -23.51328693	    -16.75162295	     70.24797859	    -15.71528631	     12.53307139	     63.13509136	     87.38031204	      0.00000000	      0.00000000	     89.95022981	      8.70844080	     38.50947036	     38.57324330	     67.99013385	      0.00000000	      0.00000000
      3.82500000	    -19.84531234	      3.30046916	      1.43701320	     -0.37402029	      0.85464551	     -0.78648833	     52.50463377	     -0.87276962	    -10.00013350	     55.66950524	      0.97161616	     11.29045815	      0.00000000	      0.00000000	     38.38260636	    -12.10955529	      1.78989421	     89.33968332	      1.55927163	    -14.02552445	      0.00000000	      0.00000000	     -6.06010004	    -23.48656732	    -16.71090836	     70.20558011	    -15.71119773	     12.51894358	     63.16080964	     87.37881929	      0.00000000	      0.00000000	     89.95023607	      8.69643205	     38.59174297	     38.53416541	     68.16222592	      0.00000000	      0.00000000
